<svg width="16" height="18" viewBox="0 0 16 18" fill="none" xmlns="http://www.w3.org/2000/svg">
    <path d="M12.5 0.75C11.0529 0.75 9.875 1.9275 9.875 3.375C9.875 3.52968 9.89096 3.68023 9.91675 3.82764L4.18774 6.69214C3.81583 6.48985 3.38973 6.375 2.9375 6.375C1.49038 6.375 0.3125 7.5525 0.3125 9C0.3125 10.4475 1.49038 11.625 2.9375 11.625C3.46572 11.625 3.9571 11.4669 4.36938 11.1973L9.88745 14.3826C9.88009 14.4625 9.875 14.5432 9.875 14.625C9.875 16.0725 11.0529 17.25 12.5 17.25C13.9471 17.25 15.125 16.0725 15.125 14.625C15.125 13.1775 13.9471 12 12.5 12C11.6755 12 10.9397 12.3834 10.458 12.98L5.35083 10.032C5.48688 9.71505 5.5625 9.36618 5.5625 9C5.5625 8.57653 5.45939 8.17753 5.28052 7.823L10.5891 5.1687C11.0683 5.67888 11.7467 6 12.5 6C13.9471 6 15.125 4.8225 15.125 3.375C15.125 1.9275 13.9471 0.75 12.5 0.75Z" fill="#5C2D91"/>
</svg>
